<?xml version="1.0" encoding="utf-8"?>
<!-- Generator: Adobe Illustrator 18.0.0, SVG Export Plug-In . SVG Version: 6.00 Build 0)  -->
<!DOCTYPE svg PUBLIC "-//W3C//DTD SVG 1.1//EN" "http://www.w3.org/Graphics/SVG/1.1/DTD/svg11.dtd">
<svg version="1.1" id="Layer_1" xmlns="http://www.w3.org/2000/svg" xmlns:xlink="http://www.w3.org/1999/xlink" x="0px" y="0px"
	 viewBox="0 0 192 192" enable-background="new 0 0 192 192" xml:space="preserve">
	<path d="M192,112.4C181.6,85,156.6,77,130.4,73.1l-56.2-8.7c-9-1.3-24-3.4-26-22.2c-1-9.7,2.4-17.6,10.2-23.5
		c6.3-4.7,15.2-7.8,25.3-8.9c41.3-4.4,47.1,21.3,49.2,31l0.1,0.4l46-4.8l-0.1-0.5c-0.8-6.7-3.6-21.5-13.2-35.9H15.8
		c-0.3,0.5-0.7,1-1,1.5C2.6,19.8,2.7,40.1,3.8,50.5c5.6,53.3,41.3,58.4,79.2,63.7l24.7,3.5c25.7,3.7,41.5,7.2,43.4,25.1
		c1.2,11.3-2.9,20.1-12.2,26.2c-7.3,4.8-17.6,7.9-30.9,9.3c-41.6,4.4-49.6-21.9-51.1-33.4l-0.1-0.5l-46,4.8l0,0.5
		c1.1,10.7,4.8,27.6,16,42.2H179c5.6-6.1,9.9-12.9,12.9-20.5V112.4z"/>
</svg>
