<?xml version="1.0" encoding="utf-8"?>
<!-- Generator: Adobe Illustrator 18.0.0, SVG Export Plug-In . SVG Version: 6.00 Build 0)  -->
<!DOCTYPE svg PUBLIC "-//W3C//DTD SVG 1.1 Basic//EN" "http://www.w3.org/Graphics/SVG/1.1/DTD/svg11-basic.dtd">
<svg version="1.1" baseProfile="basic" xmlns="http://www.w3.org/2000/svg" xmlns:xlink="http://www.w3.org/1999/xlink" x="0px"
	 y="0px" viewBox="0 0 48 48" xml:space="preserve">
<g id="Layer_1" display="none">
	<path display="inline" d="M14,36c-2.2,0-4,1.8-4,4s1.8,4,4,4s4-1.8,4-4S16.2,36,14,36z M2,4v4h4l7.2,15.2l-2.7,4.9
		C10.2,28.6,10,29.3,10,30c0,2.2,1.8,4,4,4h24v-4H14.9c-0.3,0-0.5-0.2-0.5-0.5c0-0.1,0-0.2,0.1-0.2l1.8-3.3h14.9
		c1.5,0,2.8-0.8,3.5-2.1l7.2-13c0.2-0.3,0.2-0.6,0.2-1c0-1.1-0.9-2-2-2H10.4L8.5,4C8.5,4,2,4,2,4z M34,36c-2.2,0-4,1.8-4,4
		s1.8,4,4,4s4-1.8,4-4S36.2,36,34,36z"/>
	<path display="inline" fill="none" d="M0,0h48v48H0V0z"/>
</g>
<g id="Layer_2">
	<g>
		<path fill-rule="evenodd" clip-rule="evenodd" d="M34.4,35.3c-2.2,0-3.9,1.7-3.9,3.9c0,2.1,1.8,3.9,3.9,3.9c2.2,0,3.9-1.7,3.9-3.9
			C38.4,37,36.6,35.3,34.4,35.3z M21.3,35.3c-2.2,0-3.9,1.7-3.9,3.9c0,2.1,1.8,3.9,3.9,3.9c2.2,0,3.9-1.7,3.9-3.9
			C25.2,37,23.5,35.3,21.3,35.3z M42.2,25.9l2.7-14.6H14.8L13.7,6H2.9v5.3h7.6l4.2,21.4H41l0.8-4.4l-24.3,0l0.1-2.4H42.2z"/>
	</g>
</g>
</svg>
