<?xml version="1.0" encoding="utf-8"?>
<!-- Generator: Adobe Illustrator 18.0.0, SVG Export Plug-In . SVG Version: 6.00 Build 0)  -->
<!DOCTYPE svg PUBLIC "-//W3C//DTD SVG 1.1//EN" "http://www.w3.org/Graphics/SVG/1.1/DTD/svg11.dtd">
<svg version="1.1" id="Layer_1" xmlns="http://www.w3.org/2000/svg" xmlns:xlink="http://www.w3.org/1999/xlink" x="0px" y="0px"
	 viewBox="0 0 460 290" enable-background="new 0 0 460 290" xml:space="preserve">
<path fill="#CC0000" d="M432.4,290.3H27.6C12.4,290.3,0,277.9,0,262.7V27.9C0,12.7,12.4,0.3,27.6,0.3l404.9,0
	c15.2,0,27.6,12.4,27.6,27.6v234.9C460,277.9,447.6,290.3,432.4,290.3z"/>
<g>
	<path fill="#FFFFFF" d="M81.9,168.4L81.9,168.4c-23.7,0-26.2-15.4-26.2-22l0-0.1l12.5,0l0,0.1c0.1,3.1,1.5,10.4,12.8,10.4
		c3.6,0,6.5-0.5,8.6-1.6c2.7-1.4,4-3.6,4-6.7c0-4.8-4.1-6.3-10.9-8l-6.5-1.6c-10-2.5-19.5-4.9-19.5-19.4c0-2.8,0.6-8.3,4.3-12.9
		c4-4.9,10.5-7.4,19.2-7.3c8.4,0,14.7,2.6,19,7.6c4.4,5.2,4.9,11.3,4.9,13.7l0,0.1l-12.5,0l0-0.1c-0.3-2.7-1.1-9.7-12.3-9.7
		c-2.7,0-5.2,0.6-7.1,1.7c-2.3,1.4-3.4,3.4-3.4,6c0,5.1,4,6.1,6.3,6.7l14.9,3.9c8.3,2.2,16.1,5.9,16.1,17.7
		c0,8.4-3.4,14.6-10.1,18.2C90.4,168.1,84.3,168.4,81.9,168.4z"/>
	<path fill="#FFFFFF" d="M136.7,166.7l-13,0l0-0.1l0.1-53.7l-18.4,0l0-11.8l49.9,0.1l0,11.8l-18.4,0L136.7,166.7z"/>
	<path fill="#FFFFFF" d="M345.6,167.1l-0.1,0L299,167l0-0.1l0.1-65.5l0.1,0l45,0.1l0,11.8l-32.4-0.1l0,13.5l29.7,0.1l0,11.8l-29.7,0
		l0,16.7l33.8,0.1L345.6,167.1z"/>
	<path fill="#FFFFFF" d="M375.6,168.9L375.6,168.9L375.6,168.9c-9.9,0-17.1-2.7-21.5-8c-4.1-4.9-4.7-10.9-4.7-14.1l0-0.1l12.5,0
		l0,0.1c0.1,3.1,1.5,10.4,12.8,10.5c3.6,0,6.5-0.5,8.6-1.6c2.7-1.4,4-3.6,4-6.7c0-4.8-4.1-6.3-10.9-8l-6.5-1.7
		c-10-2.5-19.5-4.9-19.5-19.4c0-4.8,1.7-20.2,23.6-20.2c8.4,0,14.7,2.6,19,7.6c4.4,5.2,4.9,11.3,4.9,13.7l0,0.1l-12.5,0l0-0.1
		c-0.3-2.7-1.1-9.7-12.4-9.7c-5.1,0-10.5,2-10.5,7.7c0,5.1,4,6.1,6.3,6.7l14.9,3.9c8.3,2.2,16.1,5.9,16.1,17.7
		c0,8.4-3.4,14.6-10.1,18.2C384.1,168.6,377.9,168.9,375.6,168.9z"/>
	<path fill="#FFFFFF" d="M253.7,159.8l0.1-48.2c0-6.7,5.6-12.1,12.5-12.1c6.9,0,12.2,5,12.7,11.9l3.4,20.3l-11.3,2.7l-4.4-22.9
		l-0.5,0l0,43.4l30,0l0,12.1l-34.7,0c0,0-0.7,0-1.3,0C256.6,167.1,253.7,163.3,253.7,159.8"/>
	<path fill="#FFFFFF" d="M186.8,166.8l0-0.1l-3.9-13.4l-22.3,0l-4.3,13.5l-13.7,0l0.1-0.2l21.8-65.4l14.9,0l0,0.1l21.5,65.6
		L186.8,166.8z M164.1,141.7l15.2,0l-7.4-25.5L164.1,141.7z"/>
	<path fill="#FFFFFF" d="M216.8,166.9l-13,0l0-0.1l0.1-65.5l28,0c11.8,0,19.1,8.1,19.1,21.1c0,3.4-1,8.5-3.6,12.7
		c-3.5,5.5-8.8,8.3-16,8.2l-14.5,0L216.8,166.9z M216.8,131.7l11.7,0c9.4,0,9.4-7,9.4-10c0-6.3-3.2-8.9-11.1-8.9l-10,0L216.8,131.7z
		"/>
	<g>
		<path fill="#FFFFFF" d="M399,100.5c2.3,0,4.3,1.8,4.3,4.3c0,2.5-2,4.3-4.3,4.3c-2.3,0-4.3-1.8-4.3-4.3
			C394.7,102.4,396.7,100.5,399,100.5z M399,108.5c2,0,3.5-1.6,3.5-3.7c0-2-1.5-3.6-3.5-3.6c-2,0-3.5,1.6-3.5,3.6
			C395.5,106.9,397,108.5,399,108.5z M397.4,102.3l1.9,0c1.2,0,1.7,0.5,1.7,1.4c0,0.9-0.6,1.3-1.3,1.4l1.4,2.2l-0.8,0l-1.4-2.1
			l-0.8,0l0,2.1l-0.8,0L397.4,102.3z M398.1,104.5l0.8,0c0.7,0,1.3,0,1.3-0.8c0-0.7-0.6-0.8-1.1-0.8l-1,0L398.1,104.5z"/>
	</g>
</g>
</svg>
