<?xml version="1.0" encoding="utf-8"?>
<!DOCTYPE svg PUBLIC "-//W3C//DTD SVG 1.1//EN" "http://www.w3.org/Graphics/SVG/1.1/DTD/svg11.dtd">
<svg version="1.1" id="Layer_1" xmlns="http://www.w3.org/2000/svg" xmlns:xlink="http://www.w3.org/1999/xlink" x="0px" y="0px"
     viewBox="-3.5 1003.5 635 156" xml:space="preserve">
<g>
	<g>
		<g>
			<path d="M51.9,1139.6L51.9,1139.6c-32.6-3.4-36.1-26.8-36.1-36.8v-0.5h21.5v0.4c0.1,5.8,2.5,15.6,17.3,17.1
				c1.3,0.1,2.6,0.2,4.1,0.2c6.1,0,10.8-0.9,14.3-2.7c4.4-2.2,6.6-6.1,6.6-11.1c0-8-6.9-10.3-18.3-13.2l-11-2.7
				c-17-4.2-33-8.2-33-32.8c0-4.8,1-14.1,7.3-21.9c6.8-8.3,17.8-12.5,32.6-12.6c2.1,0,4.3,0.1,6.3,0.3c25,2.5,34,20.8,34.2,35.6v0.5
				h-0.5h-21v-0.4c-0.5-3.9-1.8-14.4-16.6-15.9c-1.3-0.1-2.6-0.2-4-0.2c-4.6,0-8.8,1-11.8,2.8c-3.7,2.2-5.7,5.6-5.7,10
				c0,8.4,6.6,10.1,10.5,11l25.1,6.5c14.2,3.7,27.2,9.9,27.3,30c0,14.3-5.8,24.7-17.1,30.8c-9.4,5.1-19.8,5.7-23.8,5.7
				C57.3,1140,54.5,1139.9,51.9,1139.6z"/>
		</g>
		<g>
			<path d="M130.3,1137.1v-0.5l-0.2-90.2h-31v-0.5V1026h0.5l84-0.1v20.4h-0.5h-30.6l0.2,90.6L130.3,1137.1z"/>
		</g>
		<g>
			<path d="M425.6,1136.7v-0.5l-0.2-110.6h0.5l76-0.1v20.4h-0.5l-54.1,0.1v22.3l50.1-0.1v0.5v19.9h-0.5l-49.6,0.1
				l0.1,27.6l56.9-0.1v0.5v19.9h-0.5L425.6,1136.7z"/>
		</g>
		<g>
			<path d="M546.4,1139L546.4,1139c-32.5-3.4-36.1-26.8-36.1-36.8v-0.5h21.5v0.4c0.2,5.8,2.6,15.6,17.3,17.2
				c1.3,0.1,2.6,0.2,4,0.2c9.6,0,21-2.4,21-13.9c0-8-6.9-10.3-18.3-13.2l-11-2.7c-17-4.2-33-8.2-33-32.8c0-8.1,2.8-34.4,39.9-34.4
				c2.1,0,4.4,0.1,6.3,0.3c25,2.5,34.1,20.8,34.2,35.6v0.5h-0.5h-21v-0.4c-0.5-3.9-1.8-14.4-16.6-15.9c-1.3-0.1-2.6-0.2-4-0.2
				c-8.4,0-17.5,3.4-17.4,12.8c0,8.4,6.6,10.1,10.5,11l25.1,6.5c14.2,3.7,27.2,9.9,27.3,30c0,14.3-5.8,24.7-17.1,30.8
				c-9.4,5.1-19.8,5.7-23.8,5.7C551.9,1139.4,549,1139.3,546.4,1139z"/>
		</g>
		<path d="M349.5,1124.5l-0.1-81.2c0-11.2,9.4-20.4,21.1-20.4c11.6,0,20.6,8.4,21.5,20l5.9,34.3l-18.9,4.6l-7.5-38.6
			l-0.9,0.1l0.2,73.1l50.5-0.1v20.4l-58.4,0.1c0,0-1.1,0-2.1,0C354.4,1136.8,349.5,1130.5,349.5,1124.5L349.5,1124.5z"/>
		<g>
			<path d="M162.2,1137l0.2-0.6l36.5-110.5h0.3h25.1l0.1,0.3l36.6,110.7h-24.3l-0.1-0.3l-6.5-22.4h-37.3l-7.1,22.7
				h-0.3H162.2z M211.4,1052.4l-12.6,42.1h25L211.4,1052.4z"/>
		</g>
		<g>
			<path d="M265.2,1136.9v-0.5l-0.2-110.6h0.5l46.9-0.1c1.5,0,2.9,0.1,4.3,0.2c17.6,1.9,28.1,15.1,28.1,35.4
				c0,7.6-2.6,19.2-10.3,26.9c-5.8,5.8-13.4,8.7-22.8,8.7h-24.2l0.1,39.7L265.2,1136.9z M287.4,1045.8l0.1,31.4H307
				c6.7,0,11.3-2.2,13.7-6.5c2-3.6,2-7.7,2-10.2c0-9.2-4.1-13.5-13.7-14.4c-1.5-0.2-3-0.2-4.8-0.2H287.4z"/>
		</g>
	</g>
	<g>
		<path d="M602.4,1024.9c5.5,0.1,9.9,4.6,9.8,10.1c-0.1,5.5-4.6,9.9-10.1,9.8s-9.9-4.6-9.8-10.1
			C592.4,1029.1,596.9,1024.8,602.4,1024.9z M610.3,1035c0.1-4.6-3.5-8.4-8-8.5c-4.5-0.1-8.2,3.6-8.3,8.2s3.5,8.4,8,8.5
			C606.5,1043.2,610.2,1039.6,610.3,1035z M598.3,1029l4.5,0.1c2.5,0,3.9,1.2,3.9,3.5c0,2-1.4,3-3.2,3.1l3.2,5.1H605l-3.1-4.9H600
			l-0.1,4.9h-1.8L598.3,1029z M601.9,1034.2c1.7,0,3,0,3-1.8c0-1.6-1.3-1.8-2.4-1.8h-2.4l-0.1,3.5H601.9z"/>
	</g>
</g>
</svg>
